<?xml version="1.0" encoding="utf-8"?>
<!-- Generator: Adobe Illustrator 27.3.1, SVG Export Plug-In . SVG Version: 6.00 Build 0)  -->
<svg version="1.1" id="Layer_1" xmlns="http://www.w3.org/2000/svg" xmlns:xlink="http://www.w3.org/1999/xlink" x="0px" y="0px"
	 viewBox="0 0 1920 1080" style="enable-background:new 0 0 1920 1080;" xml:space="preserve">
<style type="text/css">
	.st0{fill:none;stroke:#000000;stroke-miterlimit:10;}
	.st1{fill:none;stroke:#E6E6E6;stroke-miterlimit:10;}
</style>
<g>
	<g>
		<g>
			
				<image style="overflow:visible;" width="512" height="266" xlink:href="9725EAF7.png"  transform="matrix(0.4336 0 0 0.4336 849.0877 510.0095)">
			</image>
		</g>
	</g>
	<g>
		<g>
			
				<image style="overflow:visible;" width="512" height="252" xlink:href="9725EAF5.png"  transform="matrix(0.5 0 0 0.5 832 467.3226)">
			</image>
		</g>
	</g>
	<g>
		<g>
			
				<image style="overflow:visible;" width="512" height="236" xlink:href="9725EAFB.png"  transform="matrix(9.765625e-02 0 0 9.765625e-02 832 491.2992)">
			</image>
		</g>
	</g>
	<g>
		<g>
			
				<image style="overflow:visible;" width="399" height="512" xlink:href="9725EAFD.png"  transform="matrix(5.273438e-02 0 0 5.273438e-02 955.9795 452.8227)">
			</image>
		</g>
	</g>
	<g>
		<g>
			
				<image style="overflow:visible;" width="512" height="236" xlink:href="9725EAFF.png"  transform="matrix(9.765625e-02 0 0 9.765625e-02 1037 487.2992)">
			</image>
		</g>
	</g>
	<g>
		<g>
			
				<image style="overflow:visible;" width="418" height="512" xlink:href="9725EAFC.png"  transform="matrix(5.273438e-02 0 0 5.273438e-02 954.4785 518.8226)">
			</image>
		</g>
	</g>
	<path class="st0" d="M959.6,625"/>
	<path class="st1" d="M1023.6,447"/>
	<path class="st1" d="M900.6,517"/>
	<path class="st1" d="M851.6,478"/>
	<path class="st1" d="M1067.6,506"/>
	<path class="st1" d="M959.6,590"/>
	<path class="st1" d="M976.6,470.8"/>
	<path class="st1" d="M908.6,516.8"/>
	<path class="st1" d="M861.6,481.8"/>
	<path class="st1" d="M1072.6,501.8"/>
	<path class="st1" d="M988.6,463.3"/>
	<path class="st1" d="M915.6,515.3"/>
	<path class="st1" d="M837.6,482.3"/>
	<path class="st1" d="M1076.6,498.3"/>
	<path class="st1" d="M988.6,456.3"/>
	<path class="st1" d="M922.6,512.3"/>
	<path class="st1" d="M836.6,486.3"/>
	<path class="st1" d="M1079.6,494.3"/>
	<path class="st1" d="M846.3,488.8"/>
	<path class="st1" d="M1079.3,488.8"/>
	<path class="st1" d="M988.3,448.8"/>
	<path class="st1" d="M930.3,511.8"/>
	<path class="st0" d="M960.1,593.1"/>
</g>
<path class="st0" d="M960,1078.8"/>
</svg>
