<?xml version="1.0" encoding="utf-8"?>
<!-- Generator: Adobe Illustrator 27.3.1, SVG Export Plug-In . SVG Version: 6.00 Build 0)  -->
<svg version="1.1" id="Layer_1" xmlns="http://www.w3.org/2000/svg" xmlns:xlink="http://www.w3.org/1999/xlink" x="0px" y="0px"
	 viewBox="0 0 1920 1080" style="enable-background:new 0 0 1920 1080;" xml:space="preserve">
<style type="text/css">
	.st0{fill:none;stroke:#000000;stroke-miterlimit:10;}
	.st1{fill:none;stroke:#E6E6E6;stroke-miterlimit:10;}
</style>
<g>
	<g>
		<g>
			
				<image style="overflow:visible;" width="512" height="263" xlink:href="B429389.png"  transform="matrix(0.4375 0 0 0.4375 847.9142 510.1462)">
			</image>
		</g>
	</g>
	<g>
		<g>
			
				<image style="overflow:visible;" width="512" height="250" xlink:href="B42938B.png"  transform="matrix(0.5 0 0 0.5 831.8265 467.8226)">
			</image>
		</g>
	</g>
	<g>
		<g>
			
				<image style="overflow:visible;" width="512" height="276" xlink:href="B42938E.png"  transform="matrix(0.1016 0 0 0.1016 830.8266 486.807)">
			</image>
		</g>
	</g>
	<g>
		<g>
			
				<image style="overflow:visible;" width="381" height="512" xlink:href="B42938F.png"  transform="matrix(6.835938e-02 0 0 6.835938e-02 945.3041 448.8227)">
			</image>
		</g>
	</g>
	<g>
		<g>
			
				<image style="overflow:visible;" width="512" height="276" xlink:href="B42938A.png"  transform="matrix(0.1016 0 0 0.1016 1034.8264 476.807)">
			</image>
		</g>
	</g>
	<g>
		<g>
			
				<image style="overflow:visible;" width="370" height="512" xlink:href="B429385.png"  transform="matrix(7.031250e-02 0 0 7.031250e-02 965.3185 508.3226)">
			</image>
		</g>
	</g>
	<path class="st0" d="M959.4,625"/>
	<path class="st1" d="M1023.4,447"/>
	<path class="st1" d="M900.4,517"/>
	<path class="st1" d="M851.4,478"/>
	<path class="st1" d="M1067.4,506"/>
	<path class="st1" d="M959.4,590"/>
	<path class="st1" d="M976.4,470.8"/>
	<path class="st1" d="M908.4,516.8"/>
	<path class="st1" d="M861.4,481.8"/>
	<path class="st1" d="M1072.4,501.8"/>
	<path class="st1" d="M988.4,463.3"/>
	<path class="st1" d="M915.4,515.3"/>
	<path class="st1" d="M837.4,482.3"/>
	<path class="st1" d="M1076.4,498.3"/>
	<path class="st1" d="M988.4,456.3"/>
	<path class="st1" d="M922.4,512.3"/>
	<path class="st1" d="M836.4,486.3"/>
	<path class="st1" d="M1079.4,494.3"/>
	<path class="st1" d="M846.2,488.8"/>
	<path class="st1" d="M1079.2,488.8"/>
	<path class="st1" d="M988.2,448.8"/>
	<path class="st1" d="M930.2,511.8"/>
	<path class="st1" d="M951.4,458.8"/>
	<path class="st1" d="M961.4,523.8"/>
	<path class="st1" d="M851.4,481.8"/>
	<path class="st1" d="M1085.4,477.8"/>
	<path class="st1" d="M948.2,451.8"/>
	<path class="st1" d="M971.2,523.8"/>
	<path class="st1" d="M1087.2,481.8"/>
</g>
</svg>
