<?xml version="1.0" encoding="utf-8"?>
<!-- Generator: Adobe Illustrator 27.3.1, SVG Export Plug-In . SVG Version: 6.00 Build 0)  -->
<svg version="1.1" id="Layer_1" xmlns="http://www.w3.org/2000/svg" xmlns:xlink="http://www.w3.org/1999/xlink" x="0px" y="0px"
	 viewBox="0 0 1920 1080" style="enable-background:new 0 0 1920 1080;" xml:space="preserve">
<style type="text/css">
	.st0{fill:none;stroke:#E6E6E6;stroke-miterlimit:10;}
	.st1{fill:none;stroke:#000000;stroke-miterlimit:10;}
</style>
<path class="st0" d="M959.5,1080.5"/>
<g>
	<g>
		<g>
			
				<image style="overflow:visible;" width="512" height="266" xlink:href="B28FCA96.png"  transform="matrix(0.4375 0 0 0.4375 848.0877 509.49)">
			</image>
		</g>
	</g>
	<g>
		<g>
			
				<image style="overflow:visible;" width="512" height="246" xlink:href="B28FCA9A.png"  transform="matrix(0.5 0 0 0.5 832 467.8226)">
			</image>
		</g>
	</g>
	<g>
		<g>
			
				<image style="overflow:visible;" width="512" height="294" xlink:href="B28FCA9D.png"  transform="matrix(0.1055 0 0 0.1055 838 469.3188)">
			</image>
		</g>
	</g>
	<g>
		<g>
			
				<image style="overflow:visible;" width="512" height="448" xlink:href="B28FCA9E.png"  transform="matrix(7.812500e-02 0 0 7.812500e-02 986.5 451.8227)">
			</image>
		</g>
	</g>
	<g>
		<g>
			
				<image style="overflow:visible;" width="512" height="294" xlink:href="B28FCA9C.png"  transform="matrix(0.1055 0 0 0.1055 1024 494.3188)">
			</image>
		</g>
	</g>
	<g>
		<g>
			
				<image style="overflow:visible;" width="512" height="448" xlink:href="B28FCA9B.png"  transform="matrix(7.812500e-02 0 0 7.812500e-02 901.5 505.8226)">
			</image>
		</g>
	</g>
	<path class="st1" d="M959.6,624"/>
	<path class="st0" d="M1023.6,446"/>
	<path class="st0" d="M900.6,516"/>
	<path class="st0" d="M851.6,477"/>
	<path class="st0" d="M1067.6,505"/>
	<path class="st0" d="M959.6,589"/>
	<path class="st1" d="M959,590.6"/>
</g>
<path class="st1" d="M958.9,1079"/>
</svg>
