<?xml version="1.0" encoding="utf-8"?>
<!-- Generator: Adobe Illustrator 27.3.1, SVG Export Plug-In . SVG Version: 6.00 Build 0)  -->
<svg version="1.1" id="Layer_1" xmlns="http://www.w3.org/2000/svg" xmlns:xlink="http://www.w3.org/1999/xlink" x="0px" y="0px"
	 viewBox="0 0 1920 1080" style="enable-background:new 0 0 1920 1080;" xml:space="preserve">
<style type="text/css">
	.st0{fill:none;stroke:#000000;stroke-miterlimit:10;}
	.st1{fill:none;stroke:#E6E6E6;stroke-miterlimit:10;}
</style>
<g>
	<g>
		<g>
			<g>
				
					<image style="overflow:visible;" width="512" height="266" xlink:href="C550E7D0.png"  transform="matrix(0.4375 0 0 0.4375 847.9142 509.49)">
				</image>
			</g>
		</g>
		<g>
			<g>
				
					<image style="overflow:visible;" width="512" height="252" xlink:href="C550E7D1.png"  transform="matrix(0.502 0 0 0.502 831.3265 467.0765)">
				</image>
			</g>
		</g>
		<g>
			<g>
				
					<image style="overflow:visible;" width="512" height="281" xlink:href="C550E7D7.png"  transform="matrix(0.1035 0 0 0.1035 831.3266 488.2787)">
				</image>
			</g>
		</g>
		<g>
			<g>
				
					<image style="overflow:visible;" width="413" height="512" xlink:href="C550E7D2.png"  transform="matrix(7.031250e-02 0 0 7.031250e-02 935.8071 447.3227)">
				</image>
			</g>
		</g>
		<g>
			<g>
				
					<image style="overflow:visible;" width="512" height="281" xlink:href="C550E7D3.png"  transform="matrix(0.1035 0 0 0.1035 1033.3264 473.2787)">
				</image>
			</g>
		</g>
		<g>
			<g>
				
					<image style="overflow:visible;" width="413" height="512" xlink:href="C550E7DE.png"  transform="matrix(7.031250e-02 0 0 7.031250e-02 968.8068 509.3226)">
				</image>
			</g>
		</g>
		<path class="st0" d="M959.4,625"/>
		<path class="st1" d="M1023.4,447"/>
		<path class="st1" d="M900.4,517"/>
		<path class="st1" d="M851.4,478"/>
		<path class="st1" d="M1067.4,506"/>
		<path class="st1" d="M959.4,590"/>
		<path class="st1" d="M976.4,470.8"/>
		<path class="st1" d="M908.4,516.8"/>
		<path class="st1" d="M861.4,481.8"/>
		<path class="st1" d="M1072.4,501.8"/>
		<path class="st1" d="M988.4,463.3"/>
		<path class="st1" d="M915.4,515.3"/>
		<path class="st1" d="M837.4,482.3"/>
		<path class="st1" d="M1076.4,498.3"/>
		<path class="st1" d="M988.4,456.3"/>
		<path class="st1" d="M922.4,512.3"/>
		<path class="st1" d="M836.4,486.3"/>
		<path class="st1" d="M1079.4,494.3"/>
		<path class="st1" d="M846.2,488.8"/>
		<path class="st1" d="M1079.2,488.8"/>
		<path class="st1" d="M988.2,448.8"/>
		<path class="st1" d="M930.2,511.8"/>
		<path class="st1" d="M951.4,458.8"/>
		<path class="st1" d="M961.4,523.8"/>
		<path class="st1" d="M851.4,481.8"/>
		<path class="st1" d="M1085.4,477.8"/>
		<path class="st1" d="M948.2,451.8"/>
		<path class="st1" d="M971.2,523.8"/>
		<path class="st1" d="M1087.2,481.8"/>
		<path class="st1" d="M940.5,458.8"/>
		<path class="st1" d="M976.5,525.8"/>
		<path class="st1" d="M1086.5,497.8"/>
	</g>
</g>
</svg>
