<?xml version="1.0" encoding="utf-8"?>
<!-- Generator: Adobe Illustrator 27.3.1, SVG Export Plug-In . SVG Version: 6.00 Build 0)  -->
<svg version="1.1" id="Layer_1" xmlns="http://www.w3.org/2000/svg" xmlns:xlink="http://www.w3.org/1999/xlink" x="0px" y="0px"
	 viewBox="0 0 2291 1279" style="enable-background:new 0 0 2291 1279;" xml:space="preserve">
<style type="text/css">
	.st0{fill:none;stroke:#E6E6E6;stroke-miterlimit:10;}
	.st1{fill:#FFFFFF;}
</style>
<g>
	<g>
		
			<image style="overflow:visible;" width="512" height="383" xlink:href="9BBCED7F.png"  transform="matrix(0.4805 0 0 0.4805 392.5 492.4902)">
		</image>
	</g>
</g>
<g>
	<g>
		<image style="overflow:visible;" width="1527" height="525" xlink:href="9BBCED7D.png"  transform="matrix(1 0 0 1 202.5 602.5)">
		</image>
	</g>
</g>
<g>
	<g>
		
			<image style="overflow:visible;" width="854" height="342" xlink:href="9BBCED83.png"  transform="matrix(1 0 0 1 311.1266 578.7159)">
		</image>
	</g>
</g>
<g>
	<g>
		
			<image style="overflow:visible;" width="512" height="279" xlink:href="9BBCED85.png"  transform="matrix(0.9746 0 0 0.9746 309 467.542)">
		</image>
	</g>
</g>
<g>
	<g>
		<image style="overflow:visible;" width="210" height="137" xlink:href="9BBCED87.png"  transform="matrix(1 0 0 1 432 627.5)">
		</image>
	</g>
</g>
<g>
	<g>
		
			<image style="overflow:visible;" width="512" height="340" xlink:href="9BBCED84.png"  transform="matrix(0.4062 0 0 0.4062 743 530.9375)">
		</image>
	</g>
</g>
<g>
	<g>
		
			<image style="overflow:visible;" width="512" height="340" xlink:href="9BBCED8C.png"  transform="matrix(0.4062 0 0 0.4062 601 577.9375)">
		</image>
	</g>
</g>
<g>
	<g>
		<image style="overflow:visible;" width="527" height="278" xlink:href="9BBCED8D.png"  transform="matrix(1 0 0 1 548 529)">
		</image>
	</g>
</g>
<g>
	<g>
		
			<image style="overflow:visible;" width="512" height="494" xlink:href="9BBCED8F.png"  transform="matrix(0.2129 0 0 0.2129 676.4775 706.4751)">
		</image>
	</g>
</g>
<g>
	<g>
		
			<image style="overflow:visible;" width="435" height="512" xlink:href="824E536C.png"  transform="matrix(0.2207 0 0 0.2207 499.9216 485.4694)">
		</image>
	</g>
</g>
<g>
	<g>
		
			<image style="overflow:visible;" width="433" height="512" xlink:href="824E536B.png"  transform="matrix(0.3789 0 0 0.3789 697.9668 661)">
		</image>
	</g>
</g>
<g>
	<g>
		
			<image style="overflow:visible;" width="512" height="494" xlink:href="824E5364.png"  transform="matrix(0.2129 0 0 0.2129 997.1889 623.7078)">
		</image>
	</g>
</g>
<g>
	<g>
		
			<image style="overflow:visible;" width="433" height="512" xlink:href="824E5367.png"  transform="matrix(0.3789 0 0 0.3789 999.9668 568)">
		</image>
	</g>
</g>
<g>
	<g>
		
			<image style="overflow:visible;" width="512" height="214" xlink:href="824E5365.png"  transform="matrix(0.9102 0 0 0.9102 550.25 482.8633)">
		</image>
	</g>
</g>
<g>
	<g>
		
			<image style="overflow:visible;" width="422" height="512" xlink:href="824E537B.png"  transform="matrix(0.1777 0 0 0.1777 995.998 484.5)">
		</image>
	</g>
</g>
<g>
	<g>
		
			<image style="overflow:visible;" width="359" height="512" xlink:href="824E537C.png"  transform="matrix(0.2148 0 0 0.2148 996.6264 407)">
		</image>
	</g>
</g>
<g>
	<g>
		
			<image style="overflow:visible;" width="397" height="512" xlink:href="824E537F.png"  transform="matrix(0.2949 0 0 0.2949 940.6489 284.0572)">
		</image>
	</g>
</g>
<g>
	<g>
		
			<image style="overflow:visible;" width="512" height="331" xlink:href="824E537D.png"  transform="matrix(0.8652 0 0 0.8652 603.874 387.8036)">
		</image>
	</g>
</g>
<g>
	<g>
		
			<image style="overflow:visible;" width="434" height="512" xlink:href="824E537A.png"  transform="matrix(0.1777 0 0 0.1777 610.9316 601.5)">
		</image>
	</g>
</g>
<g>
	<g>
		
			<image style="overflow:visible;" width="478" height="512" xlink:href="824E539F.png"  transform="matrix(0.1445 0 0 0.1445 585.457 646)">
		</image>
	</g>
</g>
<g>
	<g>
		
			<image style="overflow:visible;" width="26" height="122" xlink:href="824E5399.png"  transform="matrix(1 0 0 1 536.8661 671.5952)">
		</image>
	</g>
</g>
<g>
	<g>
		
			<image style="overflow:visible;" width="512" height="316" xlink:href="824E539B.png"  transform="matrix(0.1172 0 0 0.1172 524 647.4844)">
		</image>
	</g>
</g>
<path class="st0" d="M704.5,798.5"/>
<path class="st0" d="M454.5,718.5"/>
<g>
	<g>
		
			<image style="overflow:visible;" width="439" height="512" xlink:href="824E5396.png"  transform="matrix(0.1895 0 0 0.1895 768.2795 732.311)">
		</image>
	</g>
</g>
<path class="st0" d="M806.5,828.5"/>
<path class="st0" d="M686.5,791.5"/>
<g>
	<g>
		
			<image style="overflow:visible;" width="439" height="512" xlink:href="824E5397.png"  transform="matrix(0.1895 0 0 0.1895 1072.7666 637.2692)">
		</image>
	</g>
</g>
<path class="st0" d="M1159.5,718.5"/>
<path class="st0" d="M779.5,836.5"/>
<g>
	<g>
		
			<image style="overflow:visible;" width="512" height="355" xlink:href="824E5389.png"  transform="matrix(0.127 0 0 0.127 916.7825 347.4353)">
		</image>
	</g>
</g>
<g>
	<g>
		<g>
			<image style="overflow:visible;" width="257" height="129" xlink:href="824E538B.png"  transform="matrix(1 0 0 1 1123 867)">
			</image>
		</g>
	</g>
	<g>
		<g>
			<g>
				
					<image style="overflow:visible;" width="512" height="272" xlink:href="824E538E.png"  transform="matrix(0.4375 0 0 0.4375 1139.5878 815.3547)">
				</image>
			</g>
		</g>
		<g>
			<g>
				<image style="overflow:visible;" width="257" height="129" xlink:href="824E538F.png"  transform="matrix(1 0 0 1 1123 772)">
				</image>
			</g>
		</g>
		<g>
			<g>
				
					<image style="overflow:visible;" width="512" height="366" xlink:href="824E538A.png"  transform="matrix(9.570312e-02 0 0 9.570312e-02 1158 763.4863)">
				</image>
			</g>
		</g>
		<g>
			<g>
				
					<image style="overflow:visible;" width="512" height="352" xlink:href="824E53AE.png"  transform="matrix(9.960938e-02 0 0 9.960938e-02 1301.5 762.9688)">
				</image>
			</g>
		</g>
		<g>
			<g>
				
					<image style="overflow:visible;" width="512" height="366" xlink:href="824E5391.png"  transform="matrix(9.570312e-02 0 0 9.570312e-02 1296 809.4863)">
				</image>
			</g>
		</g>
	</g>
	<g>
		<g>
			
				<image style="overflow:visible;" width="512" height="352" xlink:href="824E5392.png"  transform="matrix(9.960938e-02 0 0 9.960938e-02 1149.5 809.9688)">
			</image>
		</g>
	</g>
</g>
<g>
	<g>
		
			<image style="overflow:visible;" width="124" height="512" xlink:href="824E5390.png"  transform="matrix(0.4062 0 0 0.4062 1587.3125 620.3151)">
		</image>
	</g>
</g>
<g>
	<g>
		<image style="overflow:visible;" width="655" height="288" xlink:href="824E5393.png"  transform="matrix(1 0 0 1 635 315.5)">
		</image>
	</g>
</g>
<g>
	<g>
		
			<image style="overflow:visible;" width="512" height="355" xlink:href="824E539D.png"  transform="matrix(0.127 0 0 0.127 606.4847 438.2063)">
		</image>
	</g>
</g>
<g>
	<g>
		
			<image style="overflow:visible;" width="397" height="512" xlink:href="824E539E.png"  transform="matrix(0.2949 0 0 0.2949 545.958 399)">
		</image>
	</g>
</g>
<g>
	<g>
		<image style="overflow:visible;" width="79" height="110" xlink:href="824E539C.png"  transform="matrix(1 0 0 1 608.8511 516)">
		</image>
	</g>
</g>
<g>
	<g>
		
			<image style="overflow:visible;" width="12" height="14" xlink:href="824E5394.png"  transform="matrix(1 0 0 1 628.855 679.0762)">
		</image>
	</g>
</g>
<g>
	<g>
		
			<image style="overflow:visible;" width="439" height="512" xlink:href="824E5395.png"  transform="matrix(2.734375e-02 0 0 2.734375e-02 599.9254 656.5381)">
		</image>
	</g>
</g>
<g>
	<g>
		
			<image style="overflow:visible;" width="12" height="14" xlink:href="824E53FD.png"  transform="matrix(1 0 0 1 601.855 696.0762)">
		</image>
	</g>
</g>
<g>
	<g>
		
			<image style="overflow:visible;" width="105" height="512" xlink:href="824E53FF.png"  transform="matrix(0.2578 0 0 0.2578 609.4648 587)">
		</image>
	</g>
</g>
<path class="st0" d="M877.5,350.5"/>
<g>
	<g>
		
			<image style="overflow:visible;" width="512" height="430" xlink:href="824E53FC.png"  transform="matrix(0.1211 0 0 0.1211 585.5 545.4648)">
		</image>
	</g>
</g>
<path class="st0" d="M1041.5,406.5"/>
<path class="st1" d="M705,428"/>
<path class="st1" d="M534,458"/>
<path class="st1" d="M692,465"/>
<path class="st1" d="M537,494"/>
<g>
	<g>
		
			<image style="overflow:visible;" width="512" height="317" xlink:href="824E53F3.png"  transform="matrix(0.3125 0 0 0.3125 1273 1143.4688)">
		</image>
	</g>
</g>
<path class="st0" d="M1176.5,414.5"/>
<path class="st0" d="M657.5,537.5"/>
<path class="st0" d="M1114.5,283.5"/>
<path class="st0" d="M607.5,436.5"/>
<path class="st0" d="M1118.5,202.5"/>
<path class="st0" d="M546.5,414.5"/>
<path class="st0" d="M1025.5,272.5"/>
<path class="st0" d="M546.5,414.5"/>
<path class="st0" d="M1068.5,299.5"/>
<path class="st0" d="M607.5,436.5"/>
<path class="st1" d="M1011,333"/>
<path class="st1" d="M567,464"/>
<path class="st1" d="M1020,370"/>
<g>
	<g>
		
			<image style="overflow:visible;" width="512" height="376" xlink:href="824E53F5.png"  transform="matrix(0.1973 0 0 0.1973 481.2404 170.1964)">
		</image>
	</g>
</g>
<path class="st1" d="M671,469"/>
<g>
	<g>
		
			<image style="overflow:visible;" width="512" height="355" xlink:href="824E53F7.png"  transform="matrix(0.127 0 0 0.127 523.4313 462.6414)">
		</image>
	</g>
</g>
<g>
	<g>
		
			<image style="overflow:visible;" width="154" height="138" xlink:href="824E53F4.png"  transform="matrix(1 0 0 1 512.0801 152.7729)">
		</image>
	</g>
</g>
<g>
	<g>
		
			<image style="overflow:visible;" width="255" height="512" xlink:href="824E53EC.png"  transform="matrix(0.3457 0 0 0.3457 629.4229 229.5)">
		</image>
	</g>
</g>
<g>
	<g>
		
			<image style="overflow:visible;" width="512" height="376" xlink:href="824E53ED.png"  transform="matrix(0.1973 0 0 0.1973 696.2405 110.1964)">
		</image>
	</g>
</g>
<g>
	<g>
		
			<image style="overflow:visible;" width="512" height="459" xlink:href="824E53EF.png"  transform="matrix(0.3008 0 0 0.3008 728.1602 91.589)">
		</image>
	</g>
</g>
<g>
	<g>
		
			<image style="overflow:visible;" width="255" height="512" xlink:href="824E53C8.png"  transform="matrix(0.3457 0 0 0.3457 840.7549 164.355)">
		</image>
	</g>
</g>
<path class="st1" d="M929,335"/>
<path class="st1" d="M697,406"/>
<path d="M485,195"/>
<path d="M633,240"/>
<path d="M485,212"/>
<path d="M633,253"/>
<g>
	<g>
		
			<image style="overflow:visible;" width="512" height="422" xlink:href="824E53CF.png"  transform="matrix(3.320312e-02 0 0 3.320312e-02 520.5439 662.9006)">
		</image>
	</g>
</g>
<path class="st0" d="M1327.5,828.5"/>
<path class="st0" d="M1156.5,769.5"/>
<path class="st0" d="M1331.5,819.5"/>
<path class="st0" d="M1204.5,776.5"/>
<path class="st1" d="M1518.8,1033.6"/>
<path class="st1" d="M931.8,831.6"/>
<path class="st1" d="M1752,963"/>
<path class="st1" d="M1240,1122"/>
<path class="st1" d="M1464.9,862.9"/>
<path class="st1" d="M952.9,1021.9"/>
<g>
	<g>
		
			<image style="overflow:visible;" width="512" height="271" xlink:href="824E53C9.png"  transform="matrix(0.3105 0 0 0.3105 1464.5 1079.9209)">
		</image>
	</g>
</g>
<g>
	<g>
		
			<image style="overflow:visible;" width="512" height="271" xlink:href="824E53CB.png"  transform="matrix(0.3105 0 0 0.3105 1647.5 1015.9209)">
		</image>
	</g>
</g>
<path class="st1" d="M1865,991"/>
<path class="st1" d="M1344,1153"/>
<g>
	<g>
		<image style="overflow:visible;" width="23" height="23" xlink:href="824E53C6.png"  transform="matrix(1 0 0 1 1864.5 979.5)">
		</image>
	</g>
</g>
<path class="st1" d="M1388,1171"/>
<path class="st1" d="M1388,1229"/>
<path class="st1" d="M1415,1229"/>
<path class="st1" d="M1415,1171"/>
<path class="st1" d="M1415,1229"/>
<path class="st1" d="M1388,1171"/>
</svg>
