<?xml version="1.0" encoding="utf-8"?>
<!-- Generator: Adobe Illustrator 27.3.1, SVG Export Plug-In . SVG Version: 6.00 Build 0)  -->
<svg version="1.1" id="Layer_1" xmlns="http://www.w3.org/2000/svg" xmlns:xlink="http://www.w3.org/1999/xlink" x="0px" y="0px"
	 viewBox="0 0 1920 1080" style="enable-background:new 0 0 1920 1080;" xml:space="preserve">
<style type="text/css">
	.st0{fill:none;stroke:#000000;stroke-miterlimit:10;}
</style>
<path class="st0" d="M960.5,1079.5"/>
<g>
	<g>
		<g>
			
				<image style="overflow:visible;" width="512" height="272" xlink:href="5639D0E0.png"  transform="matrix(0.4375 0 0 0.4375 847.991 508.1775)">
			</image>
		</g>
	</g>
	<g>
		<g>
			
				<image style="overflow:visible;" width="512" height="257" xlink:href="5639D0E1.png"  transform="matrix(0.502 0 0 0.502 831.4033 464.8216)">
			</image>
		</g>
	</g>
	<g>
		<g>
			
				<image style="overflow:visible;" width="512" height="366" xlink:href="5639D0E7.png"  transform="matrix(9.570312e-02 0 0 9.570312e-02 866.4033 456.309)">
			</image>
		</g>
	</g>
	<g>
		<g>
			
				<image style="overflow:visible;" width="512" height="352" xlink:href="5639D0E2.png"  transform="matrix(9.960938e-02 0 0 9.960938e-02 1009.9033 455.7914)">
			</image>
		</g>
	</g>
	<g>
		<g>
			
				<image style="overflow:visible;" width="512" height="366" xlink:href="5639D0E3.png"  transform="matrix(9.570312e-02 0 0 9.570312e-02 1004.4033 502.309)">
			</image>
		</g>
	</g>
	<g>
		<g>
			
				<image style="overflow:visible;" width="512" height="352" xlink:href="5639D0EE.png"  transform="matrix(9.960938e-02 0 0 9.960938e-02 857.9033 502.7913)">
			</image>
		</g>
	</g>
	<path class="st0" d="M959.5,624"/>
	<path class="st0" d="M960.5,594"/>
</g>
<path class="st0" d="M960.5,1079.5"/>
</svg>
