<?xml version="1.0" encoding="utf-8"?>
<!-- Generator: Adobe Illustrator 27.3.1, SVG Export Plug-In . SVG Version: 6.00 Build 0)  -->
<svg version="1.1" id="Layer_1" xmlns="http://www.w3.org/2000/svg" xmlns:xlink="http://www.w3.org/1999/xlink" x="0px" y="0px"
	 viewBox="0 0 1920 1080" style="enable-background:new 0 0 1920 1080;" xml:space="preserve">
<style type="text/css">
	.st0{fill:none;stroke:#000000;stroke-miterlimit:10;}
	.st1{fill:none;stroke:#E6E6E6;stroke-miterlimit:10;}
</style>
<path class="st0" d="M959.9,1078"/>
<g>
	<path class="st0" d="M960,592.2"/>
	<g>
		<g>
			<g>
				
					<image style="overflow:visible;" width="512" height="260" xlink:href="51343F3E.png"  transform="matrix(0.4355 0 0 0.4355 848.5877 511.0564)">
				</image>
			</g>
		</g>
		<g>
			<g>
				
					<image style="overflow:visible;" width="512" height="248" xlink:href="51343F42.png"  transform="matrix(0.5 0 0 0.5 832 468.3226)">
				</image>
			</g>
		</g>
		<g>
			<g>
				
					<image style="overflow:visible;" width="512" height="262" xlink:href="51343F45.png"  transform="matrix(9.960938e-02 0 0 9.960938e-02 831.5 485.7738)">
				</image>
			</g>
		</g>
		<g>
			<g>
				
					<image style="overflow:visible;" width="337" height="512" xlink:href="51343F46.png"  transform="matrix(6.835938e-02 0 0 6.835938e-02 949.9814 448.8227)">
				</image>
			</g>
		</g>
		<g>
			<g>
				
					<image style="overflow:visible;" width="512" height="262" xlink:href="51343F44.png"  transform="matrix(9.960938e-02 0 0 9.960938e-02 1036.5 480.7738)">
				</image>
			</g>
		</g>
		<g>
			<g>
				
					<image style="overflow:visible;" width="352" height="512" xlink:href="51343F43.png"  transform="matrix(6.835938e-02 0 0 6.835938e-02 959.4688 508.8226)">
				</image>
			</g>
		</g>
		<path class="st0" d="M959.6,625"/>
		<path class="st1" d="M1023.6,447"/>
		<path class="st1" d="M900.6,517"/>
		<path class="st1" d="M851.6,478"/>
		<path class="st1" d="M1067.6,506"/>
		<path class="st1" d="M959.6,590"/>
		<path class="st1" d="M976.6,470.8"/>
		<path class="st1" d="M908.6,516.8"/>
		<path class="st1" d="M861.6,481.8"/>
		<path class="st1" d="M1072.6,501.8"/>
		<path class="st1" d="M988.6,463.3"/>
		<path class="st1" d="M915.6,515.3"/>
		<path class="st1" d="M837.6,482.3"/>
		<path class="st1" d="M1076.6,498.3"/>
		<path class="st1" d="M988.6,456.3"/>
		<path class="st1" d="M922.6,512.3"/>
		<path class="st1" d="M836.6,486.3"/>
		<path class="st1" d="M1079.6,494.3"/>
		<path class="st1" d="M846.3,488.8"/>
		<path class="st1" d="M1079.3,488.8"/>
		<path class="st1" d="M988.3,448.8"/>
		<path class="st1" d="M930.3,511.8"/>
		<path class="st1" d="M951.6,458.8"/>
		<path class="st1" d="M961.6,523.8"/>
		<path class="st1" d="M851.6,481.8"/>
		<path class="st1" d="M1085.6,477.8"/>
	</g>
</g>
</svg>
