<?xml version="1.0" encoding="utf-8"?>
<!-- Generator: Adobe Illustrator 27.3.1, SVG Export Plug-In . SVG Version: 6.00 Build 0)  -->
<svg version="1.1" id="Layer_1" xmlns="http://www.w3.org/2000/svg" xmlns:xlink="http://www.w3.org/1999/xlink" x="0px" y="0px"
	 viewBox="0 0 1920 1080" style="enable-background:new 0 0 1920 1080;" xml:space="preserve">
<style type="text/css">
	.st0{fill:none;stroke:#000000;stroke-miterlimit:10;}
	.st1{fill:none;stroke:#E6E6E6;stroke-miterlimit:10;}
</style>
<g>
	<g>
		<g>
			
				<image style="overflow:visible;" width="512" height="266" xlink:href="26AC7328.png"  transform="matrix(0.4375 0 0 0.4375 848.0877 509.49)">
			</image>
		</g>
	</g>
	<g>
		<g>
			
				<image style="overflow:visible;" width="512" height="252" xlink:href="26AC7329.png"  transform="matrix(0.5 0 0 0.5 832 466.8226)">
			</image>
		</g>
	</g>
	<g>
		<g>
			
				<image style="overflow:visible;" width="512" height="285" xlink:href="26AC732F.png"  transform="matrix(0.1055 0 0 0.1055 834 474.2934)">
			</image>
		</g>
	</g>
	<g>
		<g>
			
				<image style="overflow:visible;" width="512" height="459" xlink:href="26AC732A.png"  transform="matrix(7.421875e-02 0 0 7.421875e-02 978.5 449.7895)">
			</image>
		</g>
	</g>
	<g>
		<g>
			
				<image style="overflow:visible;" width="512" height="275" xlink:href="26AC732B.png"  transform="matrix(0.1055 0 0 0.1055 1027 494.8207)">
			</image>
		</g>
	</g>
	<g>
		<g>
			
				<image style="overflow:visible;" width="512" height="459" xlink:href="26AC7326.png"  transform="matrix(7.421875e-02 0 0 7.421875e-02 909.5 509.7894)">
			</image>
		</g>
	</g>
	<path class="st0" d="M959.6,624.5"/>
	<path class="st1" d="M1023.6,446.5"/>
	<path class="st1" d="M900.6,516.5"/>
	<path class="st1" d="M851.6,477.5"/>
	<path class="st1" d="M1067.6,505.5"/>
	<path class="st1" d="M959.6,589.5"/>
	<path class="st1" d="M976.6,470.3"/>
	<path class="st1" d="M908.6,516.3"/>
	<path class="st1" d="M861.6,481.3"/>
	<path class="st1" d="M1072.6,501.3"/>
	<path class="st0" d="M959,593.5"/>
</g>
<path class="st0" d="M958.9,1079.2"/>
</svg>
