<?xml version="1.0" encoding="utf-8"?>
<!-- Generator: Adobe Illustrator 27.3.1, SVG Export Plug-In . SVG Version: 6.00 Build 0)  -->
<svg version="1.1" id="Layer_1" xmlns="http://www.w3.org/2000/svg" xmlns:xlink="http://www.w3.org/1999/xlink" x="0px" y="0px"
	 viewBox="0 0 1920 1080" style="enable-background:new 0 0 1920 1080;" xml:space="preserve">
<style type="text/css">
	.st0{fill:none;stroke:#000000;stroke-miterlimit:10;}
	.st1{fill:none;stroke:#E6E6E6;stroke-miterlimit:10;}
</style>
<g>
	<g>
		<g>
			
				<image style="overflow:visible;" width="512" height="270" xlink:href="68FAEE1A.png"  transform="matrix(0.4375 0 0 0.4375 848.0877 508.615)">
			</image>
		</g>
	</g>
	<g>
		<g>
			
				<image style="overflow:visible;" width="512" height="250" xlink:href="68FAEE1E.png"  transform="matrix(0.5 0 0 0.5 832 467.3226)">
			</image>
		</g>
	</g>
	<g>
		<g>
			
				<image style="overflow:visible;" width="512" height="266" xlink:href="68FAEE19.png"  transform="matrix(0.1055 0 0 0.1055 833 477.2953)">
			</image>
		</g>
	</g>
	<g>
		<g>
			
				<image style="overflow:visible;" width="512" height="483" xlink:href="68FAEE1B.png"  transform="matrix(6.835938e-02 0 0 6.835938e-02 980 450.3139)">
			</image>
		</g>
	</g>
	<g>
		<g>
			
				<image style="overflow:visible;" width="512" height="266" xlink:href="68FAEE18.png"  transform="matrix(0.1055 0 0 0.1055 1029 492.2953)">
			</image>
		</g>
	</g>
	<g>
		<g>
			
				<image style="overflow:visible;" width="512" height="483" xlink:href="68FAEE26.png"  transform="matrix(6.835938e-02 0 0 6.835938e-02 917 511.3138)">
			</image>
		</g>
	</g>
	<path class="st0" d="M959.6,624.5"/>
	<path class="st1" d="M1023.6,446.5"/>
	<path class="st1" d="M900.6,516.5"/>
	<path class="st1" d="M851.6,477.5"/>
	<path class="st1" d="M1067.6,505.5"/>
	<path class="st1" d="M959.6,589.5"/>
	<path class="st1" d="M976.6,470.3"/>
	<path class="st1" d="M908.6,516.3"/>
	<path class="st1" d="M861.6,481.3"/>
	<path class="st1" d="M1072.6,501.3"/>
	<path class="st1" d="M988.6,462.8"/>
	<path class="st1" d="M915.6,514.8"/>
	<path class="st1" d="M837.6,481.8"/>
	<path class="st1" d="M1076.6,497.8"/>
	<path class="st0" d="M952.4,592.6"/>
</g>
<path class="st0" d="M952.3,1079.3"/>
</svg>
