<?xml version="1.0" encoding="utf-8"?>
<!-- Generator: Adobe Illustrator 27.3.1, SVG Export Plug-In . SVG Version: 6.00 Build 0)  -->
<svg version="1.1" id="Layer_1" xmlns="http://www.w3.org/2000/svg" xmlns:xlink="http://www.w3.org/1999/xlink" x="0px" y="0px"
	 viewBox="0 0 1920 1080" style="enable-background:new 0 0 1920 1080;" xml:space="preserve">
<style type="text/css">
	.st0{fill:none;stroke:#000000;stroke-miterlimit:10;}
	.st1{fill:none;stroke:#E6E6E6;stroke-miterlimit:10;}
</style>
<g>
	<path class="st0" d="M973.8,625.8"/>
	<g>
		<g>
			
				<image style="overflow:visible;" width="512" height="275" xlink:href="AAC5773A.png"  transform="matrix(0.4375 0 0 0.4375 847.991 508.2228)">
			</image>
		</g>
	</g>
	<g>
		<g>
			
				<image style="overflow:visible;" width="512" height="268" xlink:href="AAC5773E.png"  transform="matrix(0.5 0 0 0.5 831.9033 464.0243)">
			</image>
		</g>
	</g>
	<g>
		<g>
			
				<image style="overflow:visible;" width="512" height="313" xlink:href="AAC57739.png"  transform="matrix(0.1055 0 0 0.1055 840.9033 498.0184)">
			</image>
		</g>
	</g>
	<g>
		<g>
			
				<image style="overflow:visible;" width="512" height="463" xlink:href="AAC5773B.png"  transform="matrix(8.007812e-02 0 0 8.007812e-02 891.9033 449.4862)">
			</image>
		</g>
	</g>
	<g>
		<g>
			
				<image style="overflow:visible;" width="512" height="313" xlink:href="AAC57738.png"  transform="matrix(0.1055 0 0 0.1055 1020.9033 464.0184)">
			</image>
		</g>
	</g>
	<g>
		<g>
			
				<image style="overflow:visible;" width="512" height="463" xlink:href="AAC57746.png"  transform="matrix(8.007812e-02 0 0 8.007812e-02 987.9033 510.4862)">
			</image>
		</g>
	</g>
	<path class="st1" d="M1023.5,447.8"/>
	<path class="st1" d="M900.5,517.8"/>
	<path class="st1" d="M851.5,478.8"/>
	<path class="st1" d="M1067.5,506.8"/>
	<path class="st1" d="M959.5,590.8"/>
	<path class="st1" d="M976.5,471.5"/>
	<path class="st1" d="M908.5,517.5"/>
	<path class="st1" d="M861.5,482.5"/>
	<path class="st1" d="M1072.5,502.5"/>
	<path class="st1" d="M988.5,464"/>
	<path class="st1" d="M915.5,516"/>
	<path class="st1" d="M837.5,483"/>
	<path class="st1" d="M1076.5,499"/>
	<path class="st1" d="M988.5,457"/>
	<path class="st1" d="M922.5,513"/>
	<path class="st1" d="M836.5,487"/>
	<path class="st1" d="M1079.5,495"/>
	<path class="st1" d="M846.2,489.5"/>
	<path class="st1" d="M1079.2,489.5"/>
	<path class="st1" d="M988.2,449.5"/>
	<path class="st1" d="M930.2,512.5"/>
	<path class="st1" d="M951.5,459.5"/>
	<path class="st1" d="M961.5,524.5"/>
	<path class="st1" d="M851.5,482.5"/>
	<path class="st1" d="M1085.5,478.5"/>
	<path class="st1" d="M948.2,452.5"/>
	<path class="st1" d="M971.2,524.5"/>
	<path class="st1" d="M1087.2,482.5"/>
	<path class="st1" d="M940.6,459.5"/>
	<path class="st1" d="M976.6,526.5"/>
	<path class="st1" d="M1086.6,498.5"/>
	<path class="st1" d="M928.2,452.5"/>
	<path class="st1" d="M986.2,526.5"/>
	<path class="st1" d="M915.6,454.5"/>
	<path class="st1" d="M1000.6,524.5"/>
	<path class="st1" d="M832.6,506.5"/>
	<path class="st1" d="M1082.6,477.5"/>
	<path class="st0" d="M960.1,595"/>
	<path class="st1" d="M909.6,457.5"/>
	<path class="st1" d="M1007.6,525.5"/>
	<path class="st0" d="M904.5,461.5"/>
	<path class="st0" d="M1010.5,529.5"/>
	<path class="st0" d="M1075.5,473.5"/>
	<path class="st0" d="M849.5,512.5"/>
</g>
</svg>
