<?xml version="1.0" encoding="utf-8"?>
<!-- Generator: Adobe Illustrator 27.3.1, SVG Export Plug-In . SVG Version: 6.00 Build 0)  -->
<svg version="1.1" id="Layer_1" xmlns="http://www.w3.org/2000/svg" xmlns:xlink="http://www.w3.org/1999/xlink" x="0px" y="0px"
	 viewBox="0 0 1920 1080" style="enable-background:new 0 0 1920 1080;" xml:space="preserve">
<style type="text/css">
	.st0{fill:none;stroke:#000000;stroke-miterlimit:10;}
	.st1{fill:none;stroke:#E6E6E6;stroke-miterlimit:10;}
</style>
<path class="st0" d="M959.9,1080"/>
<g>
	<path class="st0" d="M959.1,594.3"/>
	<g>
		<path class="st0" d="M973.9,625"/>
		<g>
			<g>
				
					<image style="overflow:visible;" width="512" height="266" xlink:href="396D9062.png"  transform="matrix(0.4375 0 0 0.4375 848.0877 509.49)">
				</image>
			</g>
		</g>
		<g>
			<g>
				
					<image style="overflow:visible;" width="512" height="252" xlink:href="396D9066.png"  transform="matrix(0.5 0 0 0.5 832 467.3226)">
				</image>
			</g>
		</g>
		<g>
			<g>
				
					<image style="overflow:visible;" width="512" height="294" xlink:href="396D9061.png"  transform="matrix(0.1055 0 0 0.1055 835 491.3188)">
				</image>
			</g>
		</g>
		<g>
			<g>
				
					<image style="overflow:visible;" width="485" height="512" xlink:href="396D9063.png"  transform="matrix(7.226562e-02 0 0 7.226562e-02 923.9756 448.8227)">
				</image>
			</g>
		</g>
		<g>
			<g>
				
					<image style="overflow:visible;" width="512" height="285" xlink:href="396D9060.png"  transform="matrix(0.1055 0 0 0.1055 1027 468.7934)">
				</image>
			</g>
		</g>
		<g>
			<g>
				
					<image style="overflow:visible;" width="484" height="512" xlink:href="396D906E.png"  transform="matrix(7.031250e-02 0 0 7.031250e-02 980.4844 508.3226)">
				</image>
			</g>
		</g>
		<path class="st1" d="M1023.6,447"/>
		<path class="st1" d="M900.6,517"/>
		<path class="st1" d="M851.6,478"/>
		<path class="st1" d="M1067.6,506"/>
		<path class="st1" d="M959.6,590"/>
		<path class="st1" d="M976.6,470.8"/>
		<path class="st1" d="M908.6,516.8"/>
		<path class="st1" d="M861.6,481.8"/>
		<path class="st1" d="M1072.6,501.8"/>
		<path class="st1" d="M988.6,463.3"/>
		<path class="st1" d="M915.6,515.3"/>
		<path class="st1" d="M837.6,482.3"/>
		<path class="st1" d="M1076.6,498.3"/>
		<path class="st1" d="M988.6,456.3"/>
		<path class="st1" d="M922.6,512.3"/>
		<path class="st1" d="M836.6,486.3"/>
		<path class="st1" d="M1079.6,494.3"/>
		<path class="st1" d="M846.3,488.8"/>
		<path class="st1" d="M1079.3,488.8"/>
		<path class="st1" d="M988.3,448.8"/>
		<path class="st1" d="M930.3,511.8"/>
		<path class="st1" d="M951.6,458.8"/>
		<path class="st1" d="M961.6,523.8"/>
		<path class="st1" d="M851.6,481.8"/>
		<path class="st1" d="M948.3,451.8"/>
		<path class="st1" d="M971.3,523.8"/>
		<path class="st1" d="M940.7,458.8"/>
		<path class="st1" d="M976.7,525.8"/>
		<path class="st1" d="M1086.7,497.8"/>
		<path class="st1" d="M928.3,451.8"/>
		<path class="st1" d="M986.3,525.8"/>
		<path class="st1" d="M923.7,448.8"/>
		<path class="st1" d="M995.7,523.8"/>
		<path class="st1" d="M840.7,502.8"/>
	</g>
</g>
</svg>
