<?xml version="1.0" encoding="utf-8"?>
<!-- Generator: Adobe Illustrator 27.3.1, SVG Export Plug-In . SVG Version: 6.00 Build 0)  -->
<svg version="1.1" id="Layer_1" xmlns="http://www.w3.org/2000/svg" xmlns:xlink="http://www.w3.org/1999/xlink" x="0px" y="0px"
	 viewBox="0 0 1920 1080" style="enable-background:new 0 0 1920 1080;" xml:space="preserve">
<style type="text/css">
	.st0{fill:none;stroke:#000000;stroke-miterlimit:10;}
	.st1{fill:none;stroke:#E6E6E6;stroke-miterlimit:10;}
</style>
<g>
	<g>
		<g>
			
				<image style="overflow:visible;" width="512" height="254" xlink:href="23094265.png"  transform="matrix(0.4375 0 0 0.4375 848.0877 512.115)">
			</image>
		</g>
	</g>
	<g>
		<g>
			
				<image style="overflow:visible;" width="512" height="248" xlink:href="23094267.png"  transform="matrix(0.502 0 0 0.502 831.5 468.0804)">
			</image>
		</g>
	</g>
	<g>
		<g>
			
				<image style="overflow:visible;" width="512" height="256" xlink:href="23094262.png"  transform="matrix(0.1055 0 0 0.1055 831 481.3227)">
			</image>
		</g>
	</g>
	<g>
		<g>
			
				<image style="overflow:visible;" width="512" height="497" xlink:href="23094263.png"  transform="matrix(6.445312e-02 0 0 6.445312e-02 973 449.3061)">
			</image>
		</g>
	</g>
	<g>
		<g>
			
				<image style="overflow:visible;" width="512" height="247" xlink:href="2309426D.png"  transform="matrix(0.1055 0 0 0.1055 1030 491.7973)">
			</image>
		</g>
	</g>
	<g>
		<g>
			
				<image style="overflow:visible;" width="512" height="497" xlink:href="2309426F.png"  transform="matrix(6.445312e-02 0 0 6.445312e-02 923 512.306)">
			</image>
		</g>
	</g>
	<path class="st0" d="M959.6,625"/>
	<path class="st1" d="M1023.6,447"/>
	<path class="st1" d="M900.6,517"/>
	<path class="st1" d="M851.6,478"/>
	<path class="st1" d="M1067.6,506"/>
	<path class="st1" d="M959.6,590"/>
	<path class="st1" d="M976.6,470.8"/>
	<path class="st1" d="M908.6,516.8"/>
	<path class="st1" d="M861.6,481.8"/>
	<path class="st1" d="M1072.6,501.8"/>
	<path class="st1" d="M988.6,463.3"/>
	<path class="st1" d="M915.6,515.3"/>
	<path class="st1" d="M837.6,482.3"/>
	<path class="st1" d="M1076.6,498.3"/>
	<path class="st1" d="M988.6,456.3"/>
	<path class="st1" d="M922.6,512.3"/>
	<path class="st1" d="M836.6,486.3"/>
	<path class="st1" d="M1079.6,494.3"/>
	<path class="st0" d="M955.7,593.2"/>
</g>
<path class="st0" d="M955.6,1079.4"/>
</svg>
