<?xml version="1.0" encoding="utf-8"?>
<!-- Generator: Adobe Illustrator 27.3.1, SVG Export Plug-In . SVG Version: 6.00 Build 0)  -->
<svg version="1.1" id="Layer_1" xmlns="http://www.w3.org/2000/svg" xmlns:xlink="http://www.w3.org/1999/xlink" x="0px" y="0px"
	 viewBox="0 0 1920 1080" style="enable-background:new 0 0 1920 1080;" xml:space="preserve">
<style type="text/css">
	.st0{fill:none;stroke:#000000;stroke-miterlimit:10;}
	.st1{fill:none;stroke:#E6E6E6;stroke-miterlimit:10;}
</style>
<path class="st0" d="M974.1,625"/>
<g>
	<g>
		
			<image style="overflow:visible;" width="512" height="266" xlink:href="64D3CB85.png"  transform="matrix(0.4375 0 0 0.4375 848.2267 509.49)">
		</image>
	</g>
</g>
<g>
	<g>
		
			<image style="overflow:visible;" width="512" height="252" xlink:href="64D3CB87.png"  transform="matrix(0.5 0 0 0.5 832.1391 467.3226)">
		</image>
	</g>
</g>
<g>
	<g>
		
			<image style="overflow:visible;" width="512" height="313" xlink:href="64D3CB82.png"  transform="matrix(0.1055 0 0 0.1055 846.1392 497.3168)">
		</image>
	</g>
</g>
<g>
	<g>
		
			<image style="overflow:visible;" width="512" height="429" xlink:href="64D3CB83.png"  transform="matrix(8.398438e-02 0 0 8.398438e-02 890.1392 451.308)">
		</image>
	</g>
</g>
<g>
	<g>
		
			<image style="overflow:visible;" width="512" height="323" xlink:href="64D3CB8D.png"  transform="matrix(0.1055 0 0 0.1055 1012.1389 460.7895)">
		</image>
	</g>
</g>
<g>
	<g>
		
			<image style="overflow:visible;" width="512" height="429" xlink:href="64D3CB8F.png"  transform="matrix(8.398438e-02 0 0 8.398438e-02 991.1389 506.3079)">
		</image>
	</g>
</g>
<path class="st1" d="M1023.7,447"/>
<path class="st1" d="M900.7,517"/>
<path class="st1" d="M851.7,478"/>
<path class="st1" d="M1067.7,506"/>
<path class="st1" d="M959.7,590"/>
<path class="st1" d="M976.7,470.8"/>
<path class="st1" d="M908.7,516.8"/>
<path class="st1" d="M861.7,481.8"/>
<path class="st1" d="M1072.7,501.8"/>
<path class="st1" d="M988.7,463.3"/>
<path class="st1" d="M915.7,515.3"/>
<path class="st1" d="M1076.7,498.3"/>
<path class="st1" d="M988.7,456.3"/>
<path class="st1" d="M922.7,512.3"/>
<path class="st1" d="M1079.7,494.3"/>
<path class="st1" d="M846.5,488.8"/>
<path class="st1" d="M1079.5,488.8"/>
<path class="st1" d="M988.5,448.8"/>
<path class="st1" d="M930.5,511.8"/>
<path class="st1" d="M951.7,458.8"/>
<path class="st1" d="M961.7,523.8"/>
<path class="st1" d="M851.7,481.8"/>
<path class="st1" d="M948.5,451.8"/>
<path class="st1" d="M971.5,523.8"/>
<path class="st1" d="M940.8,458.8"/>
<path class="st1" d="M976.8,525.8"/>
<path class="st1" d="M1086.8,497.8"/>
<path class="st1" d="M928.4,451.8"/>
<path class="st1" d="M986.4,525.8"/>
<path class="st1" d="M915.9,453.8"/>
<path class="st1" d="M1000.9,523.8"/>
<path class="st1" d="M832.9,505.8"/>
<path class="st0" d="M960.4,594.3"/>
<path class="st1" d="M909.9,456.8"/>
<path class="st1" d="M1007.9,524.8"/>
<path class="st0" d="M904.7,460.8"/>
<path class="st0" d="M1010.7,528.8"/>
<path class="st0" d="M849.7,511.8"/>
<path class="st1" d="M1017.7,520.8"/>
<path class="st1" d="M853.7,511.8"/>
</svg>
